<svg width="40" height="40" viewBox="0 0 40 40" fill="none" xmlns="http://www.w3.org/2000/svg">
<path fill-rule="evenodd" clip-rule="evenodd" d="M18.9998 33.5651C26.8232 33.5651 33.1653 27.223 33.1653 19.3996C33.1653 11.5762 26.8232 5.23409 18.9998 5.23409C11.1764 5.23409 4.83431 11.5762 4.83431 19.3996C4.83431 27.223 11.1764 33.5651 18.9998 33.5651ZM18.9998 35.1996C27.7259 35.1996 34.7998 28.1257 34.7998 19.3996C34.7998 10.6735 27.7259 3.59961 18.9998 3.59961C10.2737 3.59961 3.19983 10.6735 3.19983 19.3996C3.19983 28.1257 10.2737 35.1996 18.9998 35.1996Z" fill="#ADB5BD"/>
<path fill-rule="evenodd" clip-rule="evenodd" d="M30.009 28.9542C30.3415 28.6516 30.8564 28.6758 31.1591 29.0083L36.2628 34.6155C36.5654 34.948 36.5412 35.4628 36.2087 35.7655C35.8762 36.0681 35.3613 36.0439 35.0587 35.7114L29.955 30.1042C29.6524 29.7717 29.6766 29.2569 30.009 28.9542Z" fill="#ADB5BD"/>
<path fill-rule="evenodd" clip-rule="evenodd" d="M15.1399 16.3531C15.1399 15.9035 15.5044 15.5391 15.954 15.5391C16.4036 15.5391 16.7681 15.9035 16.7681 16.3531V17.9813C16.7681 18.4309 16.4036 18.7954 15.954 18.7954C15.5044 18.7954 15.1399 18.4309 15.1399 17.9813V16.3531ZM20.8384 20.9663C21.2881 20.9663 21.6525 21.3307 21.6525 21.7803C21.6525 22.2299 21.2881 22.5944 20.8384 22.5944H17.5821C17.1325 22.5944 16.7681 22.2299 16.7681 21.7803C16.7681 21.3307 17.1325 20.9663 17.5821 20.9663H20.8384ZM22.4666 15.5391C22.017 15.5391 21.6525 15.9035 21.6525 16.3531V17.9813C21.6525 18.4309 22.017 18.7954 22.4666 18.7954C22.9162 18.7954 23.2807 18.4309 23.2807 17.9813V16.3531C23.2807 15.9035 22.9162 15.5391 22.4666 15.5391Z" fill="#212529"/>
</svg>
