<svg width="66" height="66" viewBox="0 0 66 66" fill="none" xmlns="http://www.w3.org/2000/svg">
<path fill-rule="evenodd" clip-rule="evenodd" d="M31.3498 55.3835C44.2584 55.3835 54.7229 44.919 54.7229 32.0104C54.7229 19.1018 44.2584 8.63733 31.3498 8.63733C18.4412 8.63733 7.97668 19.1018 7.97668 32.0104C7.97668 44.919 18.4412 55.3835 31.3498 55.3835ZM31.3498 58.0804C45.7478 58.0804 57.4198 46.4085 57.4198 32.0104C57.4198 17.6124 45.7478 5.94043 31.3498 5.94043C16.9517 5.94043 5.27979 17.6124 5.27979 32.0104C5.27979 46.4085 16.9517 58.0804 31.3498 58.0804Z" fill="#ADB5BD"/>
<path fill-rule="evenodd" clip-rule="evenodd" d="M49.5151 47.7743C50.0637 47.2749 50.9132 47.3149 51.4126 47.8635L59.8337 57.1153C60.333 57.6639 60.2931 58.5135 59.7445 59.0129C59.1959 59.5122 58.3463 59.4723 57.847 58.9237L49.4259 49.6718C48.9265 49.1232 48.9664 48.2736 49.5151 47.7743Z" fill="#ADB5BD"/>
<path fill-rule="evenodd" clip-rule="evenodd" d="M24.981 26.9839C24.981 26.242 25.5823 25.6406 26.3242 25.6406C27.066 25.6406 27.6674 26.242 27.6674 26.9839V29.6703C27.6674 30.4122 27.066 31.0135 26.3242 31.0135C25.5823 31.0135 24.981 30.4122 24.981 29.6703V26.9839ZM37.07 25.6406C36.3282 25.6406 35.7268 26.242 35.7268 26.9839V29.6703C35.7268 30.4122 36.3282 31.0135 37.07 31.0135C37.8119 31.0135 38.4133 30.4122 38.4133 29.6703V26.9839C38.4133 26.242 37.8119 25.6406 37.07 25.6406Z" fill="#212529"/>
<path fill-rule="evenodd" clip-rule="evenodd" d="M31.1241 36.7297C29.9913 36.9141 29.0042 37.5661 28.4723 38.098C27.9353 38.6349 27.0647 38.6349 26.5277 38.098C25.9908 37.561 25.9908 36.6904 26.5277 36.1534C27.3708 35.3103 28.8587 34.3123 30.6822 34.0154C32.5909 33.7047 34.7554 34.1865 36.7223 36.1534C37.2592 36.6904 37.2592 37.561 36.7223 38.098C36.1853 38.6349 35.3147 38.6349 34.7777 38.098C33.4446 36.7648 32.1716 36.5592 31.1241 36.7297Z" fill="#212529"/>
</svg>
