<svg width="64" height="80" viewBox="0 0 64 80" fill="none" xmlns="http://www.w3.org/2000/svg">
<path d="M14.8722 50.1731C6.66497 50.1731 0 43.4171 0 35.0866C0 26.756 6.66497 20 14.8722 20H19.9568C19.9568 26.3249 20.0306 29.122 24.6266 29.532L52.061 29.5322C58.6435 29.4963 64 36.3247 64 44.7482H63.9811C63.9811 53.1716 58.6246 60 52.0232 60H44.0454V50.1731H14.8722Z" fill="#030000"/>
<path d="M19.95 10C19.95 4.46768 24.1261 0 29.3002 0H53.5997C58.7553 0 62.95 4.48669 62.95 10C62.95 15.5323 58.7738 20 53.5997 20H19.95V10Z" fill="#9070CF"/>
<path d="M44.05 70C44.05 75.5323 39.8739 80 34.6998 80H10.4003C5.24472 80 1.05005 75.5133 1.05005 70C1.05005 64.4677 5.22624 60 10.4003 60H44.05V70Z" fill="#9070CF"/>
</svg>
