<svg width="24" height="24" viewBox="0 0 24 24" fill="none" xmlns="http://www.w3.org/2000/svg">
<path d="M5.63354 20C4.94842 20 4.29085 19.7276 3.8064 19.2432C3.32195 18.7587 3.04956 18.1011 3.04956 17.416L3.04956 6.41601C3.04965 5.73108 3.32213 5.07422 3.8064 4.58984C4.23024 4.166 4.7864 3.90447 5.37769 3.8457L5.63355 3.83301L12.9666 3.83301C13.3808 3.83301 13.7166 4.16879 13.7166 4.58301C13.7166 4.99722 13.3808 5.33301 12.9666 5.33301L5.63355 5.33301L5.52612 5.33789C5.27814 5.36252 5.0447 5.47263 4.86694 5.65039C4.66398 5.85346 4.54965 6.12891 4.54956 6.41601L4.54956 17.416C4.54956 17.7033 4.6638 17.9795 4.86694 18.1826C5.07009 18.3858 5.34625 18.5 5.63355 18.5L12.9666 18.5C13.3808 18.5 13.7166 18.8358 13.7166 19.25C13.7164 19.6641 13.3807 20 12.9666 20L5.63354 20Z" fill="#212529"/>
<path d="M14.4231 7.54358C14.2003 7.32093 13.8478 7.33164 13.637 7.56702L10.9524 11.4801C10.7499 11.7064 10.7499 12.0605 10.9524 12.2867L13.637 16.1998C13.8478 16.4352 14.2003 16.4449 14.4231 16.2223C14.6455 15.9995 14.6551 15.6285 14.4446 15.3932L12.6467 12.4703H20.2444C20.5512 12.4703 20.8 12.2075 20.8001 11.8834C20.8001 11.5593 20.5512 11.2965 20.2444 11.2965H12.6467L14.4446 8.37366C14.6554 8.13824 14.6459 7.76637 14.4231 7.54358Z" fill="#212529"/>
</svg>
