<svg width="28" height="35" viewBox="0 0 28 35" fill="none" xmlns="http://www.w3.org/2000/svg">
<path d="M6.50661 21.9507C2.91592 21.9507 0 18.995 0 15.3504C0 11.7057 2.91592 8.75 6.50661 8.75H8.73109C8.73109 11.5172 8.76338 12.7409 10.7741 12.9203L22.7767 12.9203C25.6565 12.9046 28 15.8921 28 19.5773H27.9917C27.9917 23.2626 25.6483 26.25 22.7602 26.25H19.2699V21.9507H6.50661Z" fill="#030000"/>
<path d="M8.72809 4.375C8.72809 1.95461 10.5552 0 12.8188 0H23.4499C25.7054 0 27.5406 1.96293 27.5406 4.375C27.5406 6.79539 25.7135 8.75 23.4499 8.75H8.72809V4.375Z" fill="#9070CF"/>
<path d="M19.2719 30.625C19.2719 33.0454 17.4448 35 15.1812 35H4.55014C2.29458 35 0.459412 33.0371 0.459412 30.625C0.459412 28.2046 2.2865 26.25 4.55014 26.25H19.2719V30.625Z" fill="#9070CF"/>
</svg>
