<svg width="12" height="10" viewBox="0 0 12 10" fill="none" xmlns="http://www.w3.org/2000/svg">
<path d="M10.5127 1.80473H8.76912L8.35373 0.653421C8.32504 0.57464 8.27244 0.506543 8.20315 0.458431C8.13385 0.410319 8.05122 0.384539 7.96655 0.384613H4.03322C3.86014 0.384613 3.70502 0.49239 3.64732 0.653421L3.23066 1.80473H1.48707C0.9204 1.80473 0.461426 2.25866 0.461426 2.8191V8.60101C0.461426 9.16145 0.9204 9.61538 1.48707 9.61538H10.5127C11.0794 9.61538 11.5383 9.16145 11.5383 8.60101V2.8191C11.5383 2.25866 11.0794 1.80473 10.5127 1.80473ZM5.99989 7.58664C4.86655 7.58664 3.94861 6.67878 3.94861 5.5579C3.94861 4.43702 4.86655 3.52916 5.99989 3.52916C7.13322 3.52916 8.05117 4.43702 8.05117 5.5579C8.05117 6.67878 7.13322 7.58664 5.99989 7.58664Z" fill="#212529"/>
</svg>
