<svg width="24" height="24" viewBox="0 0 24 24" fill="none" xmlns="http://www.w3.org/2000/svg">
<path d="M11.4542 6.5546L11.9584 7.01362L12.4633 6.55528C12.5373 6.48808 12.6102 6.42146 12.6822 6.35567C13.6408 5.47945 14.4389 4.75 15.6041 4.75C16.8466 4.75 18.0338 5.25072 18.9033 6.13352C19.7715 7.02089 20.2526 8.20038 20.25 9.42361L20.25 9.42676C20.2526 10.6503 19.7713 11.8301 18.9026 12.7176C18.437 13.1933 16.6214 14.7097 14.8668 16.1492C14.0013 16.8592 13.167 17.5375 12.5488 18.0383C12.3333 18.2129 12.1441 18.366 11.9891 18.4912C11.874 18.4022 11.7403 18.2985 11.5908 18.1822C11.0581 17.7675 10.3264 17.1928 9.5304 16.5526C7.9269 15.263 6.10017 13.7378 5.09497 12.7162C3.30162 10.8935 3.30177 7.9568 5.09487 6.13514L5.09786 6.13208C5.93273 5.27418 7.06383 4.75443 8.23505 4.75267C9.50436 4.75075 10.2048 5.39939 11.1276 6.25393C11.2332 6.35168 11.3417 6.45213 11.4542 6.5546Z" stroke="#9070CF" stroke-width="1.5"/>
</svg>
