<svg width="73" height="32" viewBox="0 0 73 32" fill="none" xmlns="http://www.w3.org/2000/svg">
<path d="M67.139 14.9064H72.6896V17.5852H63.7603V0.740234H67.139V14.9064Z" fill="black"/>
<path d="M50.2638 0.740234V11.1658C50.2638 12.3081 50.5615 13.1849 51.1568 13.7963C51.7521 14.3916 52.5887 14.6892 53.6666 14.6892C54.7607 14.6892 55.6053 14.3916 56.2006 13.7963C56.7959 13.1849 57.0936 12.3081 57.0936 11.1658V0.740234H60.4963V11.1417C60.4963 12.5736 60.1826 13.7883 59.5551 14.7858C58.9438 15.7672 58.1152 16.5073 57.0694 17.006C56.0397 17.5048 54.8894 17.7542 53.6184 17.7542C52.3634 17.7542 51.2211 17.5048 50.1914 17.006C49.1779 16.5073 48.3734 15.7672 47.7781 14.7858C47.1828 13.7883 46.8852 12.5736 46.8852 11.1417V0.740234H50.2638Z" fill="black"/>
<path d="M35.8036 17.7553C34.2269 17.7553 32.7789 17.3852 31.4596 16.6451C30.1403 15.9051 29.0945 14.8834 28.3223 13.5802C27.55 12.2609 27.1639 10.7727 27.1639 9.11557C27.1639 7.47451 27.55 6.00238 28.3223 4.69918C29.0945 3.3799 30.1403 2.35021 31.4596 1.61013C32.7789 0.870043 34.2269 0.5 35.8036 0.5C37.3964 0.5 38.8444 0.870043 40.1476 1.61013C41.4668 2.35021 42.5046 3.3799 43.2608 4.69918C44.033 6.00238 44.4191 7.47451 44.4191 9.11557C44.4191 10.7727 44.033 12.2609 43.2608 13.5802C42.5046 14.8834 41.4668 15.9051 40.1476 16.6451C38.8283 17.3852 37.3803 17.7553 35.8036 17.7553ZM35.8036 14.7386C36.8172 14.7386 37.7101 14.5134 38.4824 14.0629C39.2546 13.5963 39.858 12.9367 40.2924 12.084C40.7268 11.2312 40.944 10.2418 40.944 9.11557C40.944 7.98935 40.7268 7.00793 40.2924 6.17131C39.858 5.3186 39.2546 4.66701 38.4824 4.21652C37.7101 3.76603 36.8172 3.54079 35.8036 3.54079C34.79 3.54079 33.889 3.76603 33.1007 4.21652C32.3284 4.66701 31.7251 5.3186 31.2907 6.17131C30.8563 7.00793 30.6391 7.98935 30.6391 9.11557C30.6391 10.2418 30.8563 11.2312 31.2907 12.084C31.7251 12.9367 32.3284 13.5963 33.1007 14.0629C33.889 14.5134 34.79 14.7386 35.8036 14.7386Z" fill="black"/>
<path d="M18.5185 3.46799V7.6913H24.1898V10.3701H18.5185V14.8347H24.9138V17.5859H15.1398V0.716797H24.9138V3.46799H18.5185Z" fill="black"/>
<path d="M6.25051 17.7553C5.07603 17.7553 4.01416 17.5542 3.06492 17.1519C2.13177 16.7497 1.39168 16.1705 0.844663 15.4143C0.297643 14.6582 0.0160888 13.7652 0 12.7356H3.61999C3.66825 13.4274 3.90959 13.9744 4.34398 14.3766C4.79447 14.7788 5.40585 14.9799 6.17811 14.9799C6.96646 14.9799 7.58588 14.7949 8.03637 14.4249C8.48686 14.0387 8.7121 13.54 8.7121 12.9286C8.7121 12.4299 8.55926 12.0196 8.25357 11.6978C7.94788 11.376 7.56175 11.1267 7.09517 10.9497C6.64469 10.7566 6.01722 10.5475 5.21278 10.3222C4.11874 10.0005 3.22581 9.68672 2.53399 9.38103C1.85826 9.05926 1.27102 8.58464 0.772264 7.95717C0.289599 7.31362 0.0482665 6.46091 0.0482665 5.39905C0.0482665 4.40154 0.297643 3.53274 0.796397 2.79266C1.29515 2.05257 1.99501 1.48946 2.89599 1.10333C3.79696 0.701111 4.82665 0.5 5.98504 0.5C7.72264 0.5 9.13041 0.926354 10.2084 1.77906C11.3024 2.61568 11.9057 3.79016 12.0184 5.30251H8.30184C8.26966 4.72332 8.02028 4.2487 7.5537 3.87865C7.10322 3.49252 6.49989 3.29946 5.74371 3.29946C5.08407 3.29946 4.55314 3.46839 4.15092 3.80625C3.76479 4.14412 3.57172 4.63483 3.57172 5.27838C3.57172 5.72887 3.71652 6.10696 4.00612 6.41264C4.31181 6.70224 4.68185 6.94358 5.11625 7.13664C5.56673 7.31362 6.1942 7.52277 6.99864 7.76411C8.09268 8.08588 8.98561 8.40766 9.67743 8.72943C10.3692 9.05121 10.9645 9.53388 11.4633 10.1774C11.962 10.821 12.2114 11.6656 12.2114 12.7114C12.2114 13.6124 11.9781 14.449 11.5116 15.2213C11.045 15.9935 10.3612 16.613 9.46023 17.0795C8.55926 17.53 7.48935 17.7553 6.25051 17.7553Z" fill="black"/>
<path d="M65.6729 29.7891C66.3019 29.2647 66.8032 28.8287 67.1767 28.4813C67.5502 28.1273 67.8615 27.7602 68.1105 27.38C68.3595 26.9998 68.484 26.6261 68.484 26.259C68.484 25.9247 68.4053 25.6625 68.2481 25.4724C68.0908 25.2823 67.8483 25.1872 67.5207 25.1872C67.1931 25.1872 66.9408 25.2987 66.7639 25.5216C66.587 25.7379 66.4952 26.0361 66.4887 26.4164H65.1519C65.1781 25.6297 65.4107 25.0332 65.8498 24.6267C66.2954 24.2203 66.8589 24.0171 67.5404 24.0171C68.2874 24.0171 68.8607 24.217 69.2605 24.6169C69.6602 25.0102 69.86 25.5314 69.86 26.1804C69.86 26.6917 69.7224 27.1801 69.4472 27.6455C69.172 28.1109 68.8575 28.5174 68.5036 28.8648C68.1498 29.2057 67.6878 29.6187 67.1177 30.1038H70.0173V31.2444H65.1617V30.2218L65.6729 29.7891Z" fill="black"/>
<path d="M54.6532 27.547C53.9979 27.2062 53.6703 26.6784 53.6703 25.9639C53.6703 25.6099 53.7587 25.2887 53.9357 25.0003C54.1191 24.7053 54.3911 24.4726 54.7515 24.3021C55.1184 24.1251 55.564 24.0366 56.0882 24.0366C56.6124 24.0366 57.0547 24.1251 57.4151 24.3021C57.7821 24.4726 58.054 24.7053 58.2309 25.0003C58.4144 25.2887 58.5062 25.6099 58.5062 25.9639C58.5062 26.3245 58.4177 26.6424 58.2408 26.9177C58.0638 27.1865 57.8279 27.3963 57.5331 27.547C57.8935 27.7044 58.1752 27.9338 58.3784 28.2353C58.5815 28.5369 58.6831 28.8942 58.6831 29.3072C58.6831 29.7529 58.5684 30.143 58.3391 30.4773C58.1163 30.8051 57.8083 31.0574 57.4151 31.2344C57.022 31.4114 56.5797 31.4999 56.0882 31.4999C55.5968 31.4999 55.1545 31.4114 54.7613 31.2344C54.3747 31.0574 54.0667 30.8051 53.8374 30.4773C53.6146 30.143 53.5032 29.7529 53.5032 29.3072C53.5032 28.8942 53.6047 28.5369 53.8079 28.2353C54.011 27.9272 54.2928 27.6978 54.6532 27.547ZM57.1694 26.1606C57.1694 25.8394 57.0711 25.5902 56.8745 25.4133C56.6845 25.2363 56.4224 25.1478 56.0882 25.1478C55.7606 25.1478 55.4985 25.2363 55.3019 25.4133C55.1119 25.5902 55.0168 25.8426 55.0168 26.1704C55.0168 26.4654 55.1151 26.7014 55.3117 26.8784C55.5148 27.0554 55.7737 27.1439 56.0882 27.1439C56.4027 27.1439 56.6616 27.0554 56.8647 26.8784C57.0678 26.6948 57.1694 26.4556 57.1694 26.1606ZM56.0882 28.1468C55.7147 28.1468 55.41 28.2419 55.1741 28.432C54.9448 28.6221 54.8301 28.8942 54.8301 29.2482C54.8301 29.5759 54.9415 29.8447 55.1643 30.0545C55.3936 30.2577 55.7016 30.3593 56.0882 30.3593C56.4748 30.3593 56.7795 30.2544 57.0023 30.0446C57.2251 29.8349 57.3365 29.5694 57.3365 29.2482C57.3365 28.9007 57.2218 28.6319 56.9925 28.4418C56.7631 28.2452 56.4617 28.1468 56.0882 28.1468Z" fill="black"/>
<path d="M39.7366 27.9015C39.7366 27.2263 39.8873 26.6232 40.1887 26.0922C40.4967 25.5547 40.9128 25.1384 41.437 24.8434C41.9678 24.5419 42.5608 24.3911 43.216 24.3911C43.9827 24.3911 44.6544 24.5878 45.231 24.9811C45.8076 25.3744 46.2106 25.9185 46.44 26.6134H44.8575C44.7002 26.2856 44.4774 26.0398 44.1891 25.8759C43.9074 25.712 43.5797 25.6301 43.2062 25.6301C42.8065 25.6301 42.4494 25.7251 42.1349 25.9152C41.8269 26.0988 41.5844 26.361 41.4075 26.7019C41.2371 27.0428 41.152 27.4426 41.152 27.9015C41.152 28.3538 41.2371 28.7537 41.4075 29.1012C41.5844 29.442 41.8269 29.7075 42.1349 29.8976C42.4494 30.0812 42.8065 30.173 43.2062 30.173C43.5797 30.173 43.9074 30.091 44.1891 29.9271C44.4774 29.7567 44.7002 29.5076 44.8575 29.1798H46.44C46.2106 29.8813 45.8076 30.4286 45.231 30.8219C44.6609 31.2087 43.9893 31.4021 43.216 31.4021C42.5608 31.4021 41.9678 31.2546 41.437 30.9596C40.9128 30.6581 40.4967 30.2418 40.1887 29.7108C39.8873 29.1798 39.7366 28.5767 39.7366 27.9015Z" fill="black"/>
<path d="M32.8967 31.3431H31.5206L28.4048 26.633V31.3431H27.0287V24.4697H28.4048L31.5206 29.1896V24.4697H32.8967V31.3431Z" fill="black"/>
<path d="M20.3464 24.479L18.0268 28.9531V31.3425H16.6507V28.9531L14.3212 24.479H15.8742L17.3486 27.6158L18.8131 24.479H20.3464Z" fill="black"/>
<path d="M5.2182 31.4115C4.73986 31.4115 4.30738 31.3296 3.92077 31.1657C3.54072 31.0018 3.23929 30.7658 3.0165 30.4577C2.79371 30.1496 2.67904 29.7858 2.67249 29.3662H4.14684C4.1665 29.6481 4.26479 29.871 4.44171 30.0349C4.62519 30.1988 4.87419 30.2807 5.18872 30.2807C5.5098 30.2807 5.76208 30.2053 5.94555 30.0545C6.12903 29.8972 6.22077 29.694 6.22077 29.4449C6.22077 29.2417 6.15852 29.0745 6.03401 28.9434C5.90951 28.8123 5.75225 28.7107 5.56222 28.6386C5.37875 28.5599 5.12319 28.4747 4.79556 28.3829C4.34997 28.2518 3.9863 28.124 3.70453 27.9994C3.42932 27.8683 3.19015 27.6749 2.98701 27.4193C2.79043 27.1571 2.69214 26.8096 2.69214 26.377C2.69214 25.9705 2.79371 25.6165 2.99684 25.315C3.19998 25.0135 3.48502 24.784 3.85197 24.6267C4.21892 24.4628 4.63829 24.3809 5.11009 24.3809C5.81778 24.3809 6.39114 24.5546 6.83017 24.902C7.27575 25.2429 7.52147 25.7214 7.56734 26.3376H6.05367C6.04057 26.1016 5.939 25.9083 5.74897 25.7575C5.5655 25.6002 5.31977 25.5215 5.0118 25.5215C4.74313 25.5215 4.5269 25.5903 4.36308 25.728C4.20581 25.8657 4.12718 26.0656 4.12718 26.3278C4.12718 26.5114 4.18616 26.6654 4.3041 26.79C4.42861 26.908 4.57932 27.0063 4.75624 27.085C4.93972 27.1571 5.19527 27.2423 5.5229 27.3406C5.96849 27.4717 6.33216 27.6028 6.61393 27.7339C6.89569 27.865 7.13814 28.0617 7.34128 28.3239C7.54441 28.5861 7.64598 28.9303 7.64598 29.3564C7.64598 29.7235 7.55096 30.0644 7.36093 30.379C7.17091 30.6937 6.89242 30.9461 6.52547 31.1362C6.15852 31.3197 5.72276 31.4115 5.2182 31.4115Z" fill="black"/>
</svg>
