<svg width="24" height="24" viewBox="0 0 24 24" fill="none" xmlns="http://www.w3.org/2000/svg">
<path d="M7.89143 5.78605C9.14633 4.94755 10.6217 4.5 12.131 4.5C12.5452 4.5 12.881 4.16421 12.881 3.75C12.881 3.33579 12.5452 3 12.131 3C10.325 3 8.55965 3.53552 7.05807 4.53884C5.55649 5.54216 4.38616 6.96822 3.69506 8.63669C3.00396 10.3052 2.82313 12.1411 3.17545 13.9123C3.52777 15.6835 4.39741 17.3105 5.6744 18.5875C6.95139 19.8645 8.57837 20.7341 10.3496 21.0865C12.1208 21.4388 13.9568 21.258 15.6252 20.5669C17.2937 19.8758 18.7197 18.7054 19.7231 17.2038C20.7264 15.7023 21.2619 13.9369 21.2619 12.131C21.2619 9.57243 20.2325 7.22344 18.5379 5.54761H20.512C20.9262 5.54761 21.262 5.21182 21.262 4.79761C21.262 4.38339 20.9262 4.04761 20.512 4.04761H16.3354C16.3054 4.04708 16.2754 4.04835 16.2457 4.05139C16.1439 4.06161 16.0481 4.0922 15.9624 4.13902C15.8539 4.19802 15.7588 4.28446 15.6885 4.39519C15.6603 4.43947 15.6366 4.48692 15.6181 4.53687C15.5843 4.6277 15.5692 4.72222 15.5715 4.81546V8.98808C15.5715 9.4023 15.9073 9.73808 16.3215 9.73808C16.7357 9.73808 17.0715 9.4023 17.0715 8.98808V6.23652C18.7254 7.64389 19.7619 9.77467 19.7619 12.131C19.7619 13.6402 19.3144 15.1156 18.4759 16.3705C17.6374 17.6254 16.4456 18.6035 15.0512 19.181C13.6568 19.7586 12.1225 19.9097 10.6422 19.6153C9.16197 19.3208 7.80227 18.5941 6.73506 17.5269C5.66785 16.4596 4.94107 15.0999 4.64663 13.6197C4.35219 12.1394 4.50331 10.6051 5.08088 9.21071C5.65844 7.81634 6.63652 6.62455 7.89143 5.78605Z" fill="#6D757D"/>
</svg>
