<svg width="24" height="24" viewBox="0 0 24 24" fill="none" xmlns="http://www.w3.org/2000/svg">
<path fill-rule="evenodd" clip-rule="evenodd" d="M12.7368 5.8926L8.55263 8.68207V15.4582L12.7368 18.2477V5.8926ZM12.6044 4.17811C13.3022 3.71292 14.2368 4.21314 14.2368 5.05177V19.0886C14.2368 19.9272 13.3022 20.4274 12.6044 19.9622L7.5202 16.5727C7.505 16.5626 7.49012 16.5521 7.47556 16.5413H3.75C2.7835 16.5413 2 15.7578 2 14.7913V9.21233C2 8.24583 2.7835 7.46233 3.75 7.46233H7.67809L12.6044 4.17811ZM7.05263 8.96233V15.0413H3.75C3.61193 15.0413 3.5 14.9293 3.5 14.7913V9.21233C3.5 9.07425 3.61193 8.96233 3.75 8.96233H7.05263ZM19.2997 5.18207C19.0068 4.88918 18.532 4.88918 18.2391 5.18208C17.9462 5.47497 17.9462 5.94984 18.2391 6.24274C19.0052 7.00882 19.6129 7.9183 20.0275 8.91924C20.4421 9.92018 20.6555 10.993 20.6555 12.0764C20.6555 13.1598 20.4421 14.2326 20.0275 15.2336C19.6129 16.2345 19.0052 17.144 18.2391 17.9101C17.9462 18.203 17.9462 18.6778 18.2391 18.9707C18.532 19.2636 19.0068 19.2636 19.2997 18.9707C20.2051 18.0654 20.9233 16.9905 21.4133 15.8076C21.9033 14.6247 22.1555 13.3568 22.1555 12.0764C22.1555 10.796 21.9033 9.52814 21.4133 8.34521C20.9233 7.16228 20.2051 6.08744 19.2997 5.18207ZM16.6488 7.83412C16.3559 7.5412 15.881 7.54116 15.5881 7.83403C15.2952 8.1269 15.2952 8.60177 15.588 8.89469C16.4318 9.73858 16.9058 10.8831 16.9058 12.0764C16.9058 13.2697 16.4318 14.4142 15.588 15.2581C15.2952 15.551 15.2952 16.0259 15.5881 16.3188C15.881 16.6116 16.3559 16.6116 16.6488 16.3187C17.7738 15.1935 18.4058 13.6675 18.4058 12.0764C18.4058 10.4853 17.7738 8.95931 16.6488 7.83412Z" fill="black"/>
</svg>
