<svg width="24" height="24" viewBox="0 0 24 24" fill="none" xmlns="http://www.w3.org/2000/svg">
<path d="M5.63352 20C4.9484 20 4.29083 19.7276 3.80638 19.2432C3.32193 18.7587 3.04954 18.1011 3.04954 17.416L3.04954 6.41601C3.04963 5.73108 3.32211 5.07422 3.80638 4.58984C4.23022 4.166 4.78638 3.90447 5.37767 3.8457L5.63353 3.83301L12.9665 3.83301C13.3807 3.83301 13.7165 4.16879 13.7165 4.58301C13.7165 4.99722 13.3807 5.33301 12.9665 5.33301L5.63353 5.33301L5.5261 5.33789C5.27812 5.36252 5.04468 5.47263 4.86692 5.65039C4.66396 5.85346 4.54963 6.12891 4.54954 6.41601L4.54954 17.416C4.54954 17.7033 4.66378 17.9795 4.86692 18.1826C5.07007 18.3858 5.34623 18.5 5.63353 18.5L12.9665 18.5C13.3807 18.5 13.7165 18.8358 13.7165 19.25C13.7164 19.6641 13.3806 20 12.9665 20L5.63352 20ZM17.9636 16.1992C17.7527 16.4346 17.4003 16.4453 17.1775 16.2227C16.9547 15.9999 16.9452 15.628 17.156 15.3926L18.9538 12.4697L11.3562 12.4697C11.0494 12.4697 10.8005 12.207 10.8005 11.8828C10.8006 11.5587 11.0494 11.2959 11.3562 11.2959L18.9538 11.2959L17.156 8.37305C16.9455 8.13771 16.9551 7.7667 17.1775 7.54394C17.4003 7.32132 17.7528 7.33104 17.9636 7.56641L20.6482 11.4795C20.8507 11.7057 20.8507 12.0598 20.6482 12.2861L17.9636 16.1992Z" fill="#212529"/>
</svg>
