<svg width="24" height="24" viewBox="0 0 24 24" fill="none" xmlns="http://www.w3.org/2000/svg">
<path fill-rule="evenodd" clip-rule="evenodd" d="M6.5 6.25V4.5H17.5V6.25H6.5ZM6.5 7.75V16.25H17.5V7.75H6.5ZM6.5 19.5V17.75H17.5V19.5H6.5ZM5 4C5 3.44772 5.44772 3 6 3H18C18.5523 3 19 3.44772 19 4V20C19 20.5523 18.5523 21 18 21H6C5.44772 21 5 20.5523 5 20V4ZM15.2017 10.8575C15.5096 10.5804 15.5345 10.1062 15.2574 9.79833C14.9803 9.49044 14.5061 9.46548 14.1982 9.74258L11.3666 12.291L10.2017 11.2426C9.89379 10.9655 9.41957 10.9904 9.14248 11.2983C8.86539 11.6062 8.89035 12.0804 9.19823 12.3575L10.8649 13.8575C11.1501 14.1142 11.5831 14.1142 11.8683 13.8575L15.2017 10.8575Z" fill="#212529"/>
</svg>
