<svg width="24" height="24" viewBox="0 0 24 24" fill="none" xmlns="http://www.w3.org/2000/svg">
<path d="M12.9219 3.71069C17.1486 3.92518 20.5098 7.4199 20.5098 11.7V18.2C20.5098 19.3045 19.6143 20.2 18.5098 20.2H16.5098C15.4052 20.2 14.5098 19.3045 14.5098 18.2V14.2C14.5098 13.0954 15.4052 12.2 16.5098 12.2H18.5098C18.6826 12.2 18.8498 12.2242 19.0098 12.2654V11.7C19.0098 8.1101 16.0996 5.19995 12.5098 5.19995H11.5098C7.92007 5.19995 5.00977 8.11093 5.00977 11.7009V12.2625C5.1667 12.2229 5.33078 12.2 5.5 12.2H7.5C8.60446 12.2001 9.5 13.0955 9.5 14.2V18.2C9.5 19.3044 8.60446 20.1998 7.5 20.2H5.5C4.39543 20.2 3.5 19.3045 3.5 18.2V14.2C3.5 14.1311 3.50297 14.0629 3.50977 13.9958V11.7009C3.50977 7.42087 6.87091 3.92522 11.0977 3.71069L11.5098 3.69995H12.5098L12.9219 3.71069ZM5.39941 13.7097C5.20268 13.7499 5.04844 13.9059 5.00977 14.1033V17.699H5V18.2L5.00977 18.3005C5.04968 18.496 5.20393 18.6503 5.39941 18.6902L5.5 18.7H7.5L7.60059 18.6902C7.79597 18.6502 7.95035 18.496 7.99023 18.3005L8 18.2V14.2C8 13.9583 7.82844 13.7563 7.60059 13.7097L7.5 13.7H5.5L5.39941 13.7097ZM16.5098 13.7L16.4092 13.7097C16.1812 13.7562 16.0098 13.9582 16.0098 14.2V18.2L16.0195 18.3005C16.0594 18.496 16.2137 18.6503 16.4092 18.6902L16.5098 18.7H18.5098L18.6104 18.6902C18.8058 18.6503 18.9601 18.496 19 18.3005L19.0098 18.2V14.2C19.0098 13.9582 18.8383 13.7562 18.6104 13.7097L18.5098 13.7H16.5098Z" fill="#212529"/>
</svg>
